<svg width="72" height="60" viewBox="0 0 72 60" fill="none" xmlns="http://www.w3.org/2000/svg">
<path d="M36.4695 10C40.7851 10 44.7686 11.3753 47.9934 13.699C52.7358 11.8495 56.0554 11.2804 58.0472 11.7072C60.2761 12.1815 61.272 13.5568 61.0823 15.596C60.9874 16.9238 60.2287 18.5836 58.8534 20.3857C55.1544 25.2229 46.381 32.0993 33.9561 38.2643C41.8284 37.221 49.2264 34.6127 56.1028 30.1549C55.8183 40.7304 47.1398 49.2192 36.4695 49.2192C31.2055 49.2192 26.4158 47.1325 22.9065 43.718C18.7332 45.283 15.7929 45.7098 13.9909 45.3304C11.762 44.8562 10.7661 43.4809 10.9083 41.4417C11.0032 40.0664 11.8094 38.454 13.1847 36.6045C16.8837 31.8148 25.6096 24.8909 38.0819 18.7259C30.6839 19.7218 23.7126 22.093 17.2156 26.0765C18.8755 16.9238 26.89 10 36.4695 10ZM20.2507 40.5881C19.4445 39.4025 18.7806 38.1221 18.2115 36.7468C17.4528 37.553 16.7888 38.3118 16.2672 38.9757C15.461 40.0664 14.9393 40.9201 14.8445 41.5366C15.8404 41.7263 17.6425 41.4417 20.2507 40.5881ZM51.2182 16.6393C52.1667 17.7774 53.0203 18.963 53.7317 20.2909C54.5379 19.4847 55.2018 18.7259 55.7709 18.0146C56.5771 16.9238 57.0987 16.0702 57.1936 15.5011C56.1028 15.264 54.1585 15.596 51.2182 16.6393Z" fill="white"/>
</svg>
